<svg width="25" height="25" viewBox="0 0 25 25" fill="none" xmlns="http://www.w3.org/2000/svg">
<path d="M12.4969 8.66503C10.3853 8.66503 8.66201 10.3883 8.66201 12.5C8.66201 14.6117 10.3853 16.335 12.4969 16.335C14.6085 16.335 16.3318 14.6117 16.3318 12.5C16.3318 10.3883 14.6085 8.66503 12.4969 8.66503ZM23.9987 12.5C23.9987 10.9119 24.0131 9.33824 23.9239 7.75304C23.8347 5.9118 23.4147 4.27769 22.0683 2.93128C20.7191 1.582 19.0879 1.16484 17.2467 1.07566C15.6586 0.986471 14.085 1.00086 12.4998 1.00086C10.9117 1.00086 9.33808 0.986471 7.75292 1.07566C5.91171 1.16484 4.27763 1.58488 2.93125 2.93128C1.58199 4.28057 1.16484 5.9118 1.07565 7.75304C0.986471 9.34112 1.00086 10.9148 1.00086 12.5C1.00086 14.0852 0.986471 15.6618 1.07565 17.247C1.16484 19.0882 1.58486 20.7223 2.93125 22.0687C4.28051 23.418 5.91171 23.8352 7.75292 23.9243C9.34096 24.0135 10.9146 23.9991 12.4998 23.9991C14.0878 23.9991 15.6615 24.0135 17.2467 23.9243C19.0879 23.8352 20.7219 23.4151 22.0683 22.0687C23.4176 20.7194 23.8347 19.0882 23.9239 17.247C24.016 15.6618 23.9987 14.0881 23.9987 12.5ZM12.4969 18.4006C9.23164 18.4006 6.59641 15.7653 6.59641 12.5C6.59641 9.23467 9.23164 6.59939 12.4969 6.59939C15.7622 6.59939 18.3974 9.23467 18.3974 12.5C18.3974 15.7653 15.7622 18.4006 12.4969 18.4006ZM18.6391 7.73578C17.8767 7.73578 17.261 7.12012 17.261 6.35773C17.261 5.59534 17.8767 4.97967 18.6391 4.97967C19.4014 4.97967 20.0171 5.59534 20.0171 6.35773C20.0173 6.53876 19.9818 6.71806 19.9127 6.88535C19.8435 7.05265 19.742 7.20466 19.614 7.33266C19.486 7.46067 19.334 7.56217 19.1667 7.63135C18.9994 7.70052 18.8201 7.73601 18.6391 7.73578Z" fill="#FBFDFF"/>
</svg>
