<svg width="62" height="62" viewBox="0 0 62 62" fill="none" xmlns="http://www.w3.org/2000/svg">
<path d="M19.375 11.625H42.625V15.5H19.375V11.625ZM19.375 19.375H42.625V23.25H19.375V19.375ZM19.375 46.5H31V50.375H19.375V46.5ZM19.375 27.125H31V31H19.375V27.125Z" fill="#FBFDFF"/>
<path d="M46.5 58.125H15.5C14.4726 58.124 13.4876 57.7154 12.7611 56.9889C12.0346 56.2624 11.626 55.2774 11.625 54.25V7.75C11.626 6.7226 12.0346 5.73758 12.7611 5.01109C13.4876 4.28461 14.4726 3.87603 15.5 3.875H46.5C47.5274 3.87603 48.5124 4.28461 49.2389 5.01109C49.9654 5.73758 50.374 6.7226 50.375 7.75V54.25C50.374 55.2774 49.9654 56.2624 49.2389 56.9889C48.5124 57.7154 47.5274 58.124 46.5 58.125ZM15.5 7.75V54.25H46.5V7.75H15.5Z" fill="#FBFDFF"/>
</svg>
