<svg width="25" height="25" viewBox="0 0 25 25" fill="none" xmlns="http://www.w3.org/2000/svg">
<path d="M24.4287 5.1225C25 7.35 25 12 25 12C25 12 25 16.65 24.4287 18.8775C24.1112 20.1088 23.1825 21.0775 22.0062 21.405C19.87 22 12.5 22 12.5 22C12.5 22 5.13375 22 2.99375 21.405C1.8125 21.0725 0.885 20.105 0.57125 18.8775C3.72529e-08 16.65 0 12 0 12C0 12 3.72529e-08 7.35 0.57125 5.1225C0.88875 3.89125 1.8175 2.9225 2.99375 2.595C5.13375 2 12.5 2 12.5 2C12.5 2 19.87 2 22.0062 2.595C23.1875 2.9275 24.115 3.895 24.4287 5.1225ZM10 16.375L17.5 12L10 7.625V16.375Z" fill="#FBFDFF"/>
</svg>
