<svg width="22" height="22" viewBox="0 0 22 22" fill="none" xmlns="http://www.w3.org/2000/svg">
<path d="M17.8752 19.9375H17.7583C4.24895 19.1606 2.33083 7.76188 2.0627 4.28313C2.0411 4.01265 2.07307 3.74057 2.1568 3.48247C2.24053 3.22437 2.37436 2.98533 2.55063 2.77905C2.7269 2.57276 2.94214 2.40329 3.18402 2.28033C3.4259 2.15737 3.68966 2.08335 3.9602 2.0625H7.74833C8.02371 2.06223 8.29283 2.14466 8.52082 2.29911C8.74882 2.45356 8.92518 2.67291 9.02708 2.92875L10.0721 5.5C10.1727 5.74994 10.1977 6.02393 10.1439 6.28794C10.0901 6.55195 9.95994 6.79434 9.76958 6.985L8.3052 8.46313C8.53394 9.76302 9.15645 10.9613 10.0885 11.8958C11.0206 12.8303 12.2172 13.456 13.5165 13.6881L15.0083 12.21C15.2019 12.0217 15.4465 11.8946 15.7118 11.8445C15.9771 11.7944 16.2513 11.8234 16.5002 11.9281L19.0921 12.9663C19.3441 13.0714 19.559 13.2491 19.7096 13.4768C19.8602 13.7046 19.9396 13.972 19.9377 14.245V17.875C19.9377 18.422 19.7204 18.9466 19.3336 19.3334C18.9468 19.7202 18.4222 19.9375 17.8752 19.9375ZM4.1252 3.4375C3.94286 3.4375 3.768 3.50993 3.63906 3.63886C3.51013 3.7678 3.4377 3.94266 3.4377 4.125V4.18C3.75395 8.25 5.78208 17.875 17.834 18.5625C17.9243 18.5681 18.0148 18.5558 18.1004 18.5263C18.1859 18.4968 18.2648 18.4507 18.3325 18.3907C18.4002 18.3306 18.4554 18.2578 18.4949 18.1764C18.5344 18.095 18.5574 18.0066 18.5627 17.9162V14.245L15.9708 13.2069L13.9977 15.1662L13.6677 15.125C7.68645 14.3756 6.8752 8.39438 6.8752 8.3325L6.83395 8.0025L8.78645 6.02938L7.7552 3.4375H4.1252Z" fill="#FBFDFF"/>
</svg>
