<svg width="25" height="25" viewBox="0 0 25 25" fill="none" xmlns="http://www.w3.org/2000/svg">
<path fill-rule="evenodd" clip-rule="evenodd" d="M24 12.5C24 18.8509 18.8509 24 12.5 24C6.14913 24 1 18.8509 1 12.5C1 6.14913 6.14913 1 12.5 1C18.8509 1 24 6.14913 24 12.5ZM12.9121 9.48987C11.7937 9.95467 9.55792 10.9178 6.20567 12.3783C5.66133 12.5949 5.37575 12.8067 5.34987 13.0137C5.30579 13.3644 5.74471 13.5024 6.34079 13.6893C6.42225 13.7152 6.50658 13.741 6.59283 13.7698C7.18029 13.9605 7.96996 14.1838 8.38013 14.1924C8.75292 14.2001 9.16883 14.0468 9.62788 13.7324C12.7597 11.6174 14.3764 10.5488 14.478 10.5258C14.5499 10.5095 14.6495 10.4885 14.7166 10.5488C14.7837 10.6082 14.777 10.7213 14.7703 10.752C14.7262 10.937 13.007 12.5364 12.1157 13.3644C11.8378 13.6222 11.6413 13.8053 11.6011 13.8474C11.511 13.9404 11.419 14.0295 11.3308 14.1148C10.7846 14.64 10.3763 15.0348 11.3538 15.6788C11.8234 15.9883 12.1991 16.2442 12.5738 16.4991C12.983 16.778 13.3912 17.0559 13.9202 17.4028C14.0544 17.491 14.1828 17.582 14.3084 17.6712C14.7847 18.0114 15.213 18.3161 15.742 18.2682C16.0487 18.2395 16.3669 17.951 16.5279 17.0895C16.9083 15.052 17.6577 10.6399 17.8312 8.82096C17.8418 8.66994 17.8353 8.51821 17.812 8.36863C17.7981 8.24781 17.7393 8.13664 17.6472 8.05717C17.5102 7.94504 17.2974 7.92108 17.2016 7.923C16.7694 7.93067 16.1062 8.16162 12.9121 9.48987Z" fill="#FBFDFF"/>
</svg>
